Coordinates
version=1
nRows=17
nColumns=33
inDegrees=yes

Units are S.I. units (second, meters, Newtons, ...)
Angles are in degrees.

endheader
time	ground_thorax_rot_x	ground_thorax_rot_y	ground_thorax_rot_z	ground_thorax_tx	ground_thorax_ty	ground_thorax_tz	clav_prot_r	clav_elev_r	scapula_abduction_r	scapula_elevation_r	scapula_upward_rot_r	scapula_winging_r	shoulder_elv_r	plane_of_elev_r	axial_rot_r	elbow_flexion_r	pro_sup_r	wrist_flex_r	wrist_dev_r	clav_prot_l	clav_elev_l	scapula_abduction_l	scapula_elevation_l	scapula_upward_rot_l	scapula_winging_l	shoulder_elv_l	plane_of_elev_l	axial_rot_l	elbow_flexion_l	pro_sup_l	wrist_flex_l	wrist_dev_l	
4.8300	-38.960581	-5.183318	11.826113	-216.397114	846.889861	3.697713	8.063980	-45.000000	39.647637	-45.000000	-45.000000	-1177.681112	-1181.720383	142.432957	180.000000	1092.481716	55.818457	24.929600	8.716823	15.706219	38.967102	-39.620262	-45.000000	-41.559506	-634.696747	-2806.716048	25.219717	-30.398835	370.626443	-0.294553	6.574930	-19.756350	
4.8400	-38.946772	-5.106825	11.744275	-217.779826	847.641633	3.752647	8.089184	-45.000000	39.653890	-45.000000	-45.000000	-1177.793188	-1181.714372	142.477962	180.000000	1092.488255	56.092314	24.947366	8.622583	15.652205	38.931042	-39.534748	-45.000000	-41.690296	-634.662970	-2806.685498	25.178212	-30.550609	370.612454	-0.651243	6.569101	-19.728438	
4.8500	-38.930903	-5.030822	11.661500	-219.142594	848.352707	3.821869	8.120960	-45.000000	39.669882	-45.000000	-45.000000	-1177.905679	-1181.711116	142.519529	180.000000	1092.488221	56.392282	24.970928	8.534010	15.604679	38.881541	-39.448543	-45.000000	-41.848931	-634.633766	-2806.654419	25.149154	-30.688089	370.591910	-0.982328	6.548328	-19.699037	
4.8600	-38.911118	-4.967052	11.591456	-220.484685	849.020266	3.905473	8.161679	-45.000000	39.691949	-45.000000	-45.000000	-1178.024790	-1181.714004	142.558764	180.000000	1092.482614	56.710705	25.000471	8.452796	15.569638	38.802837	-39.373054	-45.000000	-42.083209	-634.607239	-2806.619627	25.139912	-30.758689	370.563372	-1.299776	6.514777	-19.667840	
4.8700	-38.887945	-4.913454	11.532548	-221.804795	849.642311	4.002803	8.212703	-45.000000	39.723867	-45.000000	-45.000000	-1178.151384	-1181.725864	142.593991	180.000000	1092.467602	57.036930	25.038013	8.385937	15.545949	38.693143	-39.308516	-45.000000	-42.385748	-634.576834	-2806.586858	25.154908	-30.787083	370.527650	-1.602528	6.464276	-19.635637	
4.8800	-38.865679	-4.871477	11.483591	-223.101411	850.218019	4.112403	8.262104	-45.000000	39.751039	-45.000000	-45.000000	-1178.275827	-1181.745156	142.628730	180.000000	1092.447746	57.355822	25.075362	8.325620	15.525863	38.576390	-39.245961	-45.000000	-42.711678	-634.540829	-2806.556299	25.177816	-30.802380	370.493972	-1.874085	6.411094	-19.606101	
4.8900	-38.849355	-4.821835	11.430156	-224.372813	850.747753	4.232063	8.305835	-45.000000	39.774459	-45.000000	-45.000000	-1178.391915	-1181.769056	142.664676	180.000000	1092.422040	57.652400	25.112703	8.273071	15.499608	38.474177	-39.179255	-45.000000	-42.986505	-634.506553	-2806.533491	25.188895	-30.849041	370.465362	-2.091738	6.351385	-19.581274	
4.9000	-38.836316	-4.773335	11.376904	-225.617349	851.232959	4.359033	8.350579	-45.000000	39.795802	-45.000000	-45.000000	-1178.502628	-1181.799460	142.699431	180.000000	1092.387532	57.924787	25.152780	8.232404	15.477262	38.371434	-39.110689	-45.000000	-43.252867	-634.466500	-2806.514883	25.205951	-30.910469	370.442865	-2.253599	6.276533	-19.560973	
4.9100	-38.829319	-4.714446	11.319264	-226.833318	851.675784	4.490227	8.378623	-45.000000	39.805483	-45.000000	-45.000000	-1178.595505	-1181.830994	142.748278	180.000000	1092.353031	58.162163	25.182271	8.189286	15.435686	38.314441	-39.028764	-45.000000	-43.419496	-634.442830	-2806.499032	25.186371	-31.031185	370.429744	-2.334791	6.217135	-19.547311	
4.9200	-38.826108	-4.640118	11.243167	-228.019589	852.078939	4.622547	8.392470	-45.000000	39.807223	-45.000000	-45.000000	-1178.669925	-1181.857377	142.803525	180.000000	1092.319450	58.366011	25.206300	8.145507	15.378573	38.297075	-38.932095	-45.000000	-43.475949	-634.441134	-2806.492429	25.128954	-31.194152	370.419337	-2.333781	6.167257	-19.538514	
4.9300	-38.823944	-4.560306	11.167842	-229.175459	852.445338	4.753106	8.405345	-45.000000	39.806559	-45.000000	-45.000000	-1178.739185	-1181.886288	142.868756	180.000000	1092.286684	58.543079	25.232088	8.104624	15.322183	38.289730	-38.837909	-45.000000	-43.517405	-634.457144	-2806.485844	25.063102	-31.333375	370.407945	-2.254799	6.108022	-19.532305	
4.9400	-38.823932	-4.490681	11.098904	-230.301058	852.778013	4.879507	8.421581	-45.000000	39.810167	-45.000000	-45.000000	-1178.805309	-1181.926651	142.938316	180.000000	1092.248985	58.707819	25.262383	8.071242	15.275562	38.270930	-38.751628	-45.000000	-43.609459	-634.470626	-2806.472595	25.017224	-31.433742	370.399725	-2.108367	6.037954	-19.530220	
4.9500	-38.826787	-4.440641	11.052259	-231.396800	853.079816	4.999988	8.444632	-45.000000	39.813357	-45.000000	-45.000000	-1178.873378	-1181.984097	143.014247	180.000000	1092.206251	58.867846	25.297197	8.043940	15.245393	38.230824	-38.675984	-45.000000	-43.789193	-634.472371	-2806.446910	25.008010	-31.481484	370.397647	-1.895171	5.952401	-19.531676	
4.9600	-38.836225	-4.394541	11.003164	-232.463515	853.353405	5.113618	8.464452	-45.000000	39.813481	-45.000000	-45.000000	-1178.934055	-1182.050531	143.089689	180.000000	1092.160829	59.026821	25.334979	8.019422	15.216335	38.193247	-38.598269	-45.000000	-43.956987	-634.470738	-2806.420634	25.006321	-31.521643	370.400739	-1.614860	5.864050	-19.538007	
4.9700	-38.849506	-4.353018	10.957727	-233.501730	853.601011	5.220311	8.496277	-45.000000	39.816509	-45.000000	-45.000000	-1178.996669	-1182.126950	143.161193	180.000000	1092.109211	59.192208	25.385197	8.003747	15.203711	38.132629	-38.528062	-45.000000	-44.167608	-634.465065	-2806.389256	25.031661	-31.509823	370.407524	-1.285238	5.749484	-19.545684	
4.9800	-38.869371	-4.307207	10.901036	-234.511656	853.824391	5.320820	8.518937	-45.000000	39.815756	-45.000000	-45.000000	-1179.046446	-1182.205471	143.234010	180.000000	1092.055645	59.360350	25.435078	7.985643	15.181810	38.093124	-38.453074	-45.000000	-44.314158	-634.466410	-2806.361866	25.040322	-31.510664	370.422481	-0.897295	5.642028	-19.557018	
4.9900	-38.890837	-4.259524	10.837019	-235.492822	854.024653	5.416578	8.543549	-45.000000	39.816829	-45.000000	-45.000000	-1179.091407	-1182.284503	143.304131	180.000000	1091.996295	59.530154	25.490798	7.971541	15.162908	38.053675	-38.380684	-45.000000	-44.439810	-634.471584	-2806.340583	25.048409	-31.496197	370.440296	-0.461190	5.523348	-19.568096	
